# xmcd
#
# Track frame offsets: 
#        150
#        15297
#        28367
#        57388
#        71411
#        87313
#        108663
#        121755
#        137829
#        148751
#
# Disc length: 2149 seconds
#
# Revision: 1
# Processed by: cddbd v1.5.2PL0 Copyright (c) Steve Scherf et al.
# Submitted via: ExactAudioCopy v1.0b3
#
DISCID=8c08630a
DTITLE=Alain Bashung - Figure imposée
DYEAR=1992
DGENRE=Rock
TTITLE0=What's in a bird
TTITLE1=Horoscope
TTITLE2=Imbécile
TTITLE3=Hi !
TTITLE4=Chaque nuit bébé
TTITLE5=Elégance
TTITLE6=Poisson d'avril
TTITLE7=Lou ravi
TTITLE8=Week-end doux (Instrumental)
TTITLE9=Nuits halloween
EXTD=
EXTT0=
EXTT1=
EXTT2=
EXTT3=
EXTT4=
EXTT5=
EXTT6=
EXTT7=
EXTT8=
EXTT9=
PLAYORDER=
